/* XPM */
static char *coinbit64[] = {
/* columns rows colors chars-per-pixel */
"64 64 158 2 ",
"   c #995E17",
".  c #9D6117",
"X  c #AC6A1B",
"o  c #B06D1A",
"O  c #B6701C",
"+  c #BC741D",
"@  c #A06622",
"#  c #A06827",
"$  c #A7722F",
"%  c #B17224",
"&  c #BC7B2E",
"*  c #BB7E35",
"=  c #C2771D",
"-  c #CC7D1E",
";  c #CC7E21",
":  c #D3811F",
">  c #D9861F",
",  c #F5931E",
"<  c #F9931C",
"1  c #CD8124",
"2  c #D48423",
"3  c #DA8621",
"4  c #DE8A22",
"5  c #DE8C2B",
"6  c #C38133",
"7  c #CC8736",
"8  c #D08833",
"9  c #D28D3C",
"0  c #E48C23",
"q  c #E98F22",
"w  c #ED9124",
"e  c #EC952C",
"r  c #F49624",
"t  c #F89724",
"y  c #F79825",
"u  c #F89825",
"i  c #F1972B",
"p  c #F5992B",
"a  c #F99B2B",
"s  c #E59637",
"d  c #ED9934",
"f  c #ED9C3C",
"g  c #F59D34",
"h  c #F99E32",
"j  c #F49E38",
"k  c #FFA127",
"l  c #FFA22B",
"z  c #FFAA29",
"x  c #FAA135",
"c  c #FEA834",
"v  c #F5A13D",
"b  c #F9A33B",
"n  c #FFAA3D",
"m  c #FFB032",
"M  c #D89441",
"N  c #E39A43",
"B  c #EB9F45",
"V  c #EB9F48",
"C  c #EEA246",
"Z  c #E7A14B",
"A  c #EAA24C",
"S  c #F5A443",
"D  c #FAA642",
"F  c #FBA945",
"G  c #F4A649",
"H  c #F6A94C",
"J  c #FAAA4A",
"K  c #E7A455",
"L  c #ECA652",
"P  c #EDA957",
"I  c #E7A95D",
"U  c #EDAA5A",
"Y  c #F5AC54",
"T  c #FBAE52",
"R  c #F3AE5B",
"E  c #FBB056",
"W  c #F4B05E",
"Q  c #FBB25A",
"!  c #EBAD63",
"~  c #E6AE6B",
"^  c #E9AF68",
"/  c #F1AF62",
"(  c #EDB36D",
")  c #F6B361",
"_  c #FBB460",
"`  c #F4B56A",
"'  c #FBB969",
"]  c #E4B276",
"[  c #ECB473",
"{  c #E5B57D",
"}  c #E9B77C",
"|  c #EAB87D",
" . c #F0B671",
".. c #F2B975",
"X. c #F4BD7C",
"o. c #E5B984",
"O. c #EBBB83",
"+. c #E7BE8D",
"@. c #DFC09A",
"#. c #ECC18C",
"$. c #F4C184",
"%. c #F0C28B",
"&. c #E7C296",
"*. c #ECC494",
"=. c #E9C69D",
"-. c #EDC99D",
";. c #F3C791",
":. c #F3C895",
">. c #F3CB9C",
",. c #DDC9B2",
"<. c #E5C6A3",
"1. c #E7C8A4",
"2. c #EBC9A2",
"3. c #E5CBAB",
"4. c #EACEAC",
"5. c #F1CBA0",
"6. c #EDD0AC",
"7. c #F2D0A7",
"8. c #F0D0A9",
"9. c #E5CFB4",
"0. c #EAD1B3",
"q. c #E6D3BC",
"w. c #EAD5BC",
"e. c #F1D5B2",
"r. c #F2D7B9",
"t. c #F2DABE",
"y. c #E7D6C2",
"u. c #E9D6C1",
"i. c #EBDAC5",
"p. c #EBDDCC",
"a. c #F1DCC5",
"s. c #E5DBD0",
"d. c #ECDFD0",
"f. c #EEE0CE",
"g. c #EDE1D4",
"h. c #ECE5DC",
"j. c #F1E7DA",
"k. c #F2E9DD",
"l. c #E6E4E2",
"z. c #EDE7E1",
"x. c #ECE9E6",
"c. c #E2E6EC",
"v. c #E7EAEE",
"b. c #ECECEB",
"n. c #F3ECE4",
"m. c #F1EFEB",
"M. c #F4F0EC",
"N. c #E7EEF7",
"B. c #EDEFF2",
"V. c #EEF0F2",
"C. c #EDF3F9",
"Z. c #F4F4F4",
"A. c #F8F6F3",
"S. c #F9F8F7",
"D. c #F3F6F9",
"F. c #F5FAFE",
"G. c #FDFEFE",
"H. c None",
/* pixels */
"H.H.H.H.H.H.H.H.H.H.H.H.H.H.H.H.H.H.H.H.H.H.H.H.H.H.H.H.H.H.H.H.H.H.H.H.H.H.H.H.H.H.H.H.H.H.H.H.H.H.H.H.H.H.H.H.H.H.H.H.H.H.H.H.",
"H.H.H.H.H.H.H.H.H.H.H.H.H.H.H.H.H.H.H.H.H.H.H.H.H.H.H.H.H.H.H.H.H.H.H.H.H.H.H.H.H.H.H.H.H.H.H.H.H.H.H.H.H.H.H.H.H.H.H.H.H.H.H.H.",
"H.H.H.H.H.H.H.H.H.H.H.H.H.H.H.H.H.H.H.H.H.H.H.H.H.H.H.H.H.H.H.H.H.H.H.H.H.H.H.H.H.H.H.H.H.H.H.H.H.H.H.H.H.H.H.H.H.H.H.H.H.H.H.H.",
"H.H.H.H.H.H.H.H.H.H.H.H.H.H.H.H.H.H.H.H.H.H.H.H.H.H.H.H.H.# H.* H.; H.H.H.H.H.H.H.H.H.H.H.H.H.H.H.H.H.H.H.H.H.H.H.H.H.H.H.H.H.H.",
"H.H.H.H.H.H.H.H.H.H.H.H.H.H.H.H.H.H.H.H.H.H.H.H.% @ a c x c a z a c c x J s v 7 H.H.H.H.H.H.H.H.H.H.H.H.H.H.H.H.H.H.H.H.H.H.H.H.",
"H.H.H.H.H.H.H.H.H.H.H.H.H.H.H.H.H.H.H.H.H.H.; m y l l u u u u u u u u u a x a h x j D H.H.H.H.H.H.H.H.H.H.H.H.H.H.H.H.H.H.H.H.H.",
"H.H.H.H.H.H.H.H.H.H.H.H.H.H.H.H.H.H.H.2 p u l u u u u u u t u t u u u u a u u u u a a n F $ H.H.H.H.H.H.H.H.H.H.H.H.H.H.H.H.H.H.",
"H.H.H.H.H.H.H.H.H.H.H.H.H.H.H.H.H.1 4 u k u u u u u u u u u u u u u u u a a p u u u u a a n D H.H.H.H.H.H.H.H.H.H.H.H.H.H.H.H.H.",
"H.H.H.H.H.H.H.H.H.H.H.H.H.H.H.H.3 a u u u u u u u u u u u u u u u u a a a a a u u u u u u a h F N H.H.H.H.H.H.H.H.H.H.H.H.H.H.H.",
"H.H.H.H.H.H.H.H.H.H.H.H.H.H.H.y u t u u u u u u u u u u u u u u u a a a h a a p u u u u u t u a b H H.H.H.H.H.H.H.H.H.H.H.H.H.H.",
"H.H.H.H.H.H.H.H.H.H.H.H.H.2 r k u y u u u u u u u u u u u u a a a a a x a a a p u y u u y u t t p x N H.H.H.H.H.H.H.H.H.H.H.H.H.",
"H.H.H.H.H.H.H.H.H.H.H.H.+ l u y y u u y u u u u u t u u u u a a a a h h x h a a p u u u u u u u t a g G H.H.H.H.H.H.H.H.H.H.H.H.",
"H.H.H.H.H.H.H.H.H.H.H.w u u u u u u u t u u u u u u u u p p a a h p a x x g a a p u u u u u u y u u a x B H.H.H.H.H.H.H.H.H.H.H.",
"H.H.H.H.H.H.H.H.H.H.3 u u u u u u u u u u u u u u u u p a a a a h G d p g x x a a a p y u u u u u u u u n G H.H.H.H.H.H.H.H.H.H.",
"H.H.H.H.H.H.H.H.H.q u u u u u u u u u u u u u u a a p a a h h a U <.9.o.f g x < a < y y u u u u u u u u p b M H.H.H.H.H.H.H.H.H.",
"H.H.H.H.H.H.H.H.; r u u u u u u u u u u u u u u a a a a h a x x ` B.Z.c.I a P } A C y y u u u u u u u u u a F H.H.H.H.H.H.H.H.H.",
"H.H.H.H.H.H.H.H.u u u u u u u u u t u u u u u a a a h h x x b x *.F.G.d.f l <.N.b.@.s y u u u y u u u u u u h S H.H.H.H.H.H.H.H.",
"H.H.H.H.H.H.H.4 y u u u u u u u u u u u a a a a a x u h t g y D 0.S.F.=.g G w.G.D.3.r y a u u u u u u u u u u b N H.H.H.H.H.H.H.",
"H.H.H.H.H.H.H.l u u u u u u u u u u p p a a a h u , G C U K U U f.G.M.o., Y h.G.D.] , a a u y u u u t u u y u a D H.H.H.H.H.H.H.",
"H.H.H.H.H.H.0 y u u u u u u u u u u a u a a a p g &.w.p.B.h.h.k.Z.G.M.o.f ` V.G.h.C y l a a a u t u u u u u u u g J H.H.H.H.H.H.",
"H.H.H.H.H.H.u u u u u u u u u p p a a a x x u Y 0.C.G.G.G.G.G.G.G.G.G.j.4.a.S.G.u.r , a u a u u u u u u u u t t a F H.H.H.H.H.H.",
"H.H.H.H.H.q y u u u u u u u a a p a h h h h D 1.M.G.G.G.G.G.G.G.G.G.G.G.G.S.G.G.g.] U e s , < u u u u u u u u u u x 9 H.H.H.H.H.",
"H.H.H.H.H.w u u u u u u u p a a a a h h h h ( g.G.G.G.G.G.F.F.k.V.m.Z.G.G.G.G.G.F.k.B.i.&.o.V r u u u u u u u u u x F H.H.H.H.H.",
"H.H.H.H.H.r u u u u u a u a a h h x h h b b O.Z.G.G.G.G.m.t.X.O.X.-.4.r.Z.G.G.G.G.G.G.G.G.v.,., r p u u u u u u u u F H.H.H.H.H.",
"H.H.H.H.o r u u u u a a a a h h h x b b b x *.F.G.G.G.F.4.Y G F E T W Q i.G.G.G.G.G.G.G.G.F.o.r a u u u t u u u u u x * H.H.H.H.",
"H.H.H.H.0 y u u p p a a h h h h h x b b D D *.Z.G.G.G.Z.} S T T E Q T ` i.G.G.G.G.m.i.e.s.y.{ , a p u u u y u u u u l D H.H.H.H.",
"H.H.H.H.4 u u a a a a h h h h b b b b b D J ) z.G.G.G.D.+.S Q Q Q Q Q ..x.G.G.G.F.0.S j R ^ G t a a a r u u u t u u a F H.H.H.H.",
"H.H.H.H.u y u a a a h h h x b b b b D D D b J %.Z.G.G.G.s.Z H E Q Q E :.D.G.G.G.D.| p b x l h h h a u a u y y u u u u b H.H.H.H.",
"H.H.H.H.y y u u a a a h x x b b D D J b b | O.7.Z.G.G.G.S.q.( L R T Q 0.F.G.G.G.z.! j D b x x h h a a p u u u u u u u n H.H.H.H.",
"H.H.H.H.y y u y p a a a h x x b D b x / 4.x.M.D.G.G.G.G.G.F.x.0.o.[ ..a.G.G.G.G.i.U b D D D x j h h a a a u u u u u u n H.H.H.H.",
"H.H.H.H.u r u u u u a a a h x x b x F 0.m.G.G.G.G.G.G.G.G.G.G.G.Z.p.p.n.G.G.G.F.3.j J D D b x x h h a a a u u u u u y h 6 H.H.H.",
"H.H.H.H.r y u u u a a a a h h j b h ..B.G.G.G.G.G.G.F.m.D.M.F.F.G.G.G.G.G.G.G.Z.O.S J F D D D x x h h h a a u u u r t n 7 H.H.H.",
"H.H.H.H.u y u u u u u a a h h x x D 3.Z.G.G.G.G.S.z.>.*.:.2.6.f.g.n.F.G.G.G.G.h.^ D J J D D b b b x h h a a p u u u t h 6 H.H.H.",
"H.H.H.H.r y t u u u u a a a a h g H y.G.G.G.G.G.i.[ J T E Q ` ' $.-.n.G.G.G.G.u.! J T J J D D b b x h h a a a u u u u n 6 H.H.H.",
"H.H.H.H.u u u u u u u u a a a h x H p.G.G.G.G.Z.&.G J Q Q Q Q _ Q X.m.G.G.G.F.3.G J J J J J D D b b h h h a a p a u t x H.H.H.H.",
"H.H.H.H.u u u u u u u u u p a a h J z.G.G.G.G.Z.#.g T E E Q Q Q Q >.F.G.G.G.Z.| D J J J D D D b b v b x h h a a u u a c H.H.H.H.",
"H.H.H.H.q u u u u u u u u a a a h D y.G.G.G.G.G.9.s J T T Q Q Q _ u.F.G.G.G.h.^ S J F D D b b x b x x h h h h a a p u b H.H.H.H.",
"H.H.H.H.q y u u u u u u u p a a h b &.C.G.G.G.G.m.+.C v T E Q Q ..p.G.G.G.S.u.L b D D b b b b b h h h h h a a a p y l j H.H.H.H.",
"H.H.H.H.: y u u u u u t u u p r a x J d.G.G.G.G.G.B.3.[ C G T F X.m.G.G.G.F.1.g D D D b b b b h h h a a a a a r u u a j H.H.H.H.",
"H.H.H.H.H.w u t u u u u u u u a p a x [ p.Z.G.G.G.G.Z.h.y.#.~ R ;.F.G.G.G.Z.( b D b b b b h h h h g a a y a u u u u h 8 H.H.H.H.",
"H.H.H.H.H.u y u y u u u y u u u a a a b ..w.n.A.G.G.G.G.S.F.h.i.k.G.G.G.G.z.L i b b b x x x a x p p a a u t u u u u h H.H.H.H.H.",
"H.H.H.H.H.q r u u u t u u u y u p a a a h T +.q.g.Z.G.G.G.G.G.G.F.G.G.G.G.M.{ C p a h g h h a a a a u u u u u u u a x H.H.H.H.H.",
"H.H.H.H.H.H.w y t u u u t y u t u a a a a h x T ` 4.Z.G.G.S.G.G.G.G.G.G.G.G.h.q.<.f g h a a a a u u u y u y u u u p g H.H.H.H.H.",
"H.H.H.H.H.H.w t u y u y u u u u u u a a a h h h x $.Z.G.k.0.t.Z.G.G.G.G.G.G.G.G.l.K y a a a p p u u u u u u u u a c H.H.H.H.H.H.",
"H.H.H.H.H.H.3 r t y y t u u u u t u a a a a h h x 4.F.G.2.S T p.G.G.k.b.k.S.G.G.v.B y a p p u u u u u u t u u u p g H.H.H.H.H.H.",
"H.H.H.H.H.H.H.0 r y y y u t u u u u u u a h h a Y s.G.Z.o.a R p.G.m.O.Y O.2.a.v.y.s u u u u u u u u u u u u u u c @ H.H.H.H.H.H.",
"H.H.H.H.H.H.H.H.r y u u u u u u u u u a a a h a [ x.G.m.~ a ` m.G.x.K t x G b Q ^ a t p u u u u u u u u u u u a p H.H.H.H.H.H.H.",
"H.H.H.H.H.H.H.H.3 r y u t u t u u u t t a a a b [ p.C.s.L h *.F.G.p.e a h u p u u p u y u u u u u u u u u u a l H.H.H.H.H.H.H.H.",
"H.H.H.H.H.H.H.H.H.w r y u y u u u u u u u a p h D / ..o.h J y.B.F.1.r a a a y u u u u u u u u u u u u t u u a 0 H.H.H.H.H.H.H.H.",
"H.H.H.H.H.H.H.H.H.H.w y u u u u t y t y u r u a a a a h h J ..9.4.o.t a a p p u u u u u u u u u u u u u u a i H.H.H.H.H.H.H.H.H.",
"H.H.H.H.H.H.H.H.H.H.- r y u u y u u y u u u a a a h h h b h h h G j t a a u u u u u u u u u u u u u u u p q H.H.H.H.H.H.H.H.H.H.",
"H.H.H.H.H.H.H.H.H.H.H.- q t u u u t u t u u u a a a h h h h a a u a u a p u u y t u u u u u u u u u u a y H.H.H.H.H.H.H.H.H.H.H.",
"H.H.H.H.H.H.H.H.H.H.H.H.> r y y u t u u y u u u a a a h h h a a p p t u y t u u u t u u u u u u t u z % H.H.H.H.H.H.H.H.H.H.H.H.",
"H.H.H.H.H.H.H.H.H.H.H.H.H.- r y u u u u u u u y a a a p a a a a a u u u u u u u u u t u u u u u u r 0 H.H.H.H.H.H.H.H.H.H.H.H.H.",
"H.H.H.H.H.H.H.H.H.H.H.H.H.H.> q r y u u u u u u u a a a a a u a u t u t u u u u y t u u u u u u k X H.H.H.H.H.H.H.H.H.H.H.H.H.H.",
"H.H.H.H.H.H.H.H.H.H.H.H.H.H.H.= r r u u u u u u t a a a a a u u u u u u y t u u u u u u u u u 0 H.H.H.H.H.H.H.H.H.H.H.H.H.H.H.H.",
"H.H.H.H.H.H.H.H.H.H.H.H.H.H.H.H.H.2 u y u u u u u u a p u y u u u u u u u t u u u u u a u w = H.H.H.H.H.H.H.H.H.H.H.H.H.H.H.H.H.",
"H.H.H.H.H.H.H.H.H.H.H.H.H.H.H.H.H.H.H.0 r r y y u u u p u u u u u u u u u u u u y l u u - H.H.H.H.H.H.H.H.H.H.H.H.H.H.H.H.H.H.H.",
"H.H.H.H.H.H.H.H.H.H.H.H.H.H.H.H.H.H.H.H.H.0 q r u y u u u u u u t u u u u u u u z O H.H.H.H.H.H.H.H.H.H.H.H.H.H.H.H.H.H.H.H.H.H.",
"H.H.H.H.H.H.H.H.H.H.H.H.H.H.H.H.H.H.H.H.H.H.H.H.o 0 3 y y y k r l r u y k > o O H.H.H.H.H.H.H.H.H.H.H.H.H.H.H.H.H.H.H.H.H.H.H.H.",
"H.H.H.H.H.H.H.H.H.H.H.H.H.H.H.H.H.H.H.H.H.H.H.H.H.H.H.H.H.H.. H.. H.H.H.H.H.H.H.H.H.H.H.H.H.H.H.H.H.H.H.H.H.H.H.H.H.H.H.H.H.H.H.",
"H.H.H.H.H.H.H.H.H.H.H.H.H.H.H.H.H.H.H.H.H.H.H.H.H.H.H.H.H.H.H.H.H.H.H.H.H.H.H.H.H.H.H.H.H.H.H.H.H.H.H.H.H.H.H.H.H.H.H.H.H.H.H.H.",
"H.H.H.H.H.H.H.H.H.H.H.H.H.H.H.H.H.H.H.H.H.H.H.H.H.H.H.H.H.H.H.H.H.H.H.H.H.H.H.H.H.H.H.H.H.H.H.H.H.H.H.H.H.H.H.H.H.H.H.H.H.H.H.H.",
"H.H.H.H.H.H.H.H.H.H.H.H.H.H.H.H.H.H.H.H.H.H.H.H.H.H.H.H.H.H.H.H.H.H.H.H.H.H.H.H.H.H.H.H.H.H.H.H.H.H.H.H.H.H.H.H.H.H.H.H.H.H.H.H."
};
