/* XPM */
static char *coinbit16[] = {
/* columns rows colors chars-per-pixel */
"16 16 164 2 ",
"   c #AC6A19",
".  c #BE7521",
"X  c #CD7E20",
"o  c #CD7F20",
"O  c #D1801E",
"+  c #D3821F",
"@  c #D6831F",
"#  c #F28B0E",
"$  c #F8951D",
"%  c #D48321",
"&  c #DC8820",
"*  c #E18A20",
"=  c #E58D21",
"-  c #E98E23",
";  c #EB8F22",
":  c #EA9022",
">  c #EC9122",
",  c #EC9023",
"<  c #EC9123",
"1  c #EF9324",
"2  c #E3902A",
"3  c #EE942A",
"4  c #EE972E",
"5  c #F29423",
"6  c #F79621",
"7  c #F49623",
"8  c #F79623",
"9  c #F69723",
"0  c #F79723",
"q  c #F29424",
"w  c #F39524",
"e  c #F39625",
"r  c #F49524",
"t  c #F59624",
"y  c #F49625",
"u  c #F79624",
"i  c #F79724",
"p  c #F69625",
"a  c #F59726",
"s  c #F69727",
"d  c #F99620",
"f  c #F89726",
"g  c #F79825",
"h  c #FA9923",
"j  c #FC9821",
"k  c #FC9922",
"l  c #F99925",
"z  c #FA9824",
"x  c #FA9924",
"c  c #FB9A25",
"v  c #F89826",
"b  c #FA9926",
"n  c #F99A26",
"m  c #FC9A26",
"M  c #F49729",
"N  c #F5982B",
"B  c #F59A2E",
"V  c #F89A28",
"C  c #F89A29",
"Z  c #F99A29",
"A  c #FB9B28",
"S  c #F89A2A",
"D  c #F99B2A",
"F  c #F89B2B",
"G  c #F99B2B",
"H  c #FB9C2A",
"J  c #FA9D2B",
"K  c #FF9E28",
"L  c #F89B2F",
"P  c #FA9C2C",
"I  c #F99C2F",
"U  c #FA9E2F",
"Y  c #FC9D2E",
"T  c #E5983E",
"R  c #ED9B39",
"E  c #F39B31",
"W  c #F59B31",
"Q  c #F79D34",
"!  c #F69E36",
"~  c #FA9D30",
"^  c #F99E31",
"/  c #FB9F31",
"(  c #F99E32",
")  c #F09E38",
"_  c #FFA125",
"`  c #FFA127",
"'  c #FFA227",
"]  c #FFA028",
"[  c #FFA42C",
"{  c #FAA033",
"}  c #F9A135",
"|  c #F9A137",
" . c #FAA137",
".. c #FFA435",
"X. c #FFAD35",
"o. c #F8A038",
"O. c #FAA238",
"+. c #FAA339",
"@. c #F9A23A",
"#. c #F9A33B",
"$. c #FEA63B",
"%. c #F9A43E",
"&. c #F9A43F",
"*. c #E89D41",
"=. c #EDA044",
"-. c #EFA247",
";. c #EBA048",
":. c #EBA148",
">. c #EFA54D",
",. c #F3A343",
"<. c #FBA540",
"1. c #FFA840",
"2. c #F6A94F",
"3. c #E5A75D",
"4. c #EEAA58",
"5. c #EBAB5C",
"6. c #EEAD5F",
"7. c #F1A955",
"8. c #F3AD5A",
"9. c #F6B15E",
"0. c #E1A865",
"q. c #E3AB68",
"w. c #F0B46E",
"e. c #E2AD70",
"r. c #EDB574",
"t. c #EDBA7E",
"y. c #F9BA71",
"u. c #EDBE83",
"i. c #E8BE8A",
"p. c #E9BE8B",
"a. c #ECBE88",
"s. c #E9C192",
"d. c #EDC392",
"f. c #EFCA9D",
"g. c #EFCEA5",
"h. c #E9CDAC",
"j. c #E2CFBB",
"k. c #EBD0B2",
"l. c #EAD2B5",
"z. c #EAD2B6",
"x. c #E5D0B8",
"c. c #E6D3BC",
"v. c #E4D4BF",
"b. c #E8D2B8",
"n. c #EFD6B9",
"m. c #F0DABF",
"M. c #E2D5C6",
"N. c #ECDBC7",
"B. c #E6DBCE",
"V. c #E9DDCE",
"C. c #ECDECD",
"Z. c #E4DCD3",
"A. c #E6DFD7",
"S. c #E0DEDB",
"D. c #E5E1DD",
"F. c #EDE6DE",
"G. c #E4E3E1",
"H. c #E5E5E3",
"J. c #E7E7E8",
"K. c #ECEBE9",
"L. c #EDEBEB",
"P. c #E9EBED",
"I. c #E4ECF5",
"U. c None",
/* pixels */
"U.U.U.U.U.U.U.U.U.U.U.U.U.U.U.U.",
"U.U.U.U.U.. X.E ..| R T U.U.U.U.",
"U.U.U.U.d [ h Z Z g n O.*.U.U.U.",
"U.U.X ` m $ s E 5.3.3 d #.=.U.U.",
"U.& n f $ M ,.s.M.j.q.# Z %.U.U.",
"U.= n n L 6.S.l.C.L.v.0.s ( ,.U.",
"U., Z ( { d.A.f.y.K.c.:.N Z 1.U.",
"U.e Z O.9.k.P.h.N.J.r.Q U J #.U.",
"U.- 6 Y a.I.g.u.n.D.7.%.O.( $.U.",
"U.q 6 ( w.G.l.2.m.B.R Q E Z O.U.",
"U.+ 5 n | t.Z.C.F.H.q.s f m 4 U.",
"U.U.- s f %.i.v.b.i.;.6 s K 2 U.",
"U.U.+ , g J >.8.4.E 6 h K X U.U.",
"U.U.U.+ , n n J k 6 ` s % U.U.U.",
"U.U.U.U.+ * , n ; `   U.U.U.U.U.",
"U.U.U.U.U.U.U.U.U.U.U.U.U.U.U.U."
};
