/* XPM */
static char *coinbit32[] = {
/* columns rows colors chars-per-pixel */
"32 32 121 2 ",
"   c #8D5819",
".  c #A3651A",
"X  c #AB6919",
"o  c #BC731D",
"O  c #C1761C",
"+  c #CD7F1F",
"@  c #CA7C20",
"#  c #D2821E",
"$  c #D8841F",
"%  c #F48C10",
"&  c #F8941D",
"*  c #D68421",
"=  c #DF8D27",
"-  c #DE8E2D",
";  c #C4863C",
":  c #D9933F",
">  c #E58C22",
",  c #E98F24",
"<  c #EC9123",
"1  c #ED952C",
"2  c #F59625",
"3  c #F89723",
"4  c #F79825",
"5  c #F99925",
"6  c #F29629",
"7  c #F6992A",
"8  c #F99B2B",
"9  c #EE9833",
"0  c #E1973E",
"q  c #EC9C3C",
"w  c #F59D34",
"e  c #F99E32",
"r  c #F49F3A",
"t  c #FFA327",
"y  c #FFAB2E",
"u  c #F7A036",
"i  c #FBA235",
"p  c #FFA835",
"a  c #F5A13C",
"s  c #FAA33B",
"d  c #FFAA3B",
"f  c #E39A42",
"g  c #EA9D42",
"h  c #EFA346",
"j  c #ECA248",
"k  c #F4A445",
"l  c #F9A642",
"z  c #FEAA43",
"x  c #F4A74A",
"c  c #F4A84E",
"v  c #FBAA48",
"b  c #E5A455",
"n  c #EDA755",
"m  c #EEA856",
"M  c #EDAB5E",
"N  c #F5AB53",
"B  c #FCAE53",
"V  c #FDB258",
"C  c #EDAF66",
"Z  c #EDB26D",
"A  c #F2B56D",
"S  c #E7B375",
"D  c #EBB473",
"F  c #E6B57B",
"G  c #EDBA7D",
"H  c #F5BA72",
"J  c #F3BC7A",
"K  c #DEBB91",
"L  c #E6B882",
"P  c #EBBC83",
"I  c #EBBF8B",
"U  c #E6BF90",
"Y  c #DDC09D",
"T  c #EEC18A",
"R  c #F3C48D",
"E  c #EBC493",
"W  c #EAC69D",
"Q  c #F0CA9C",
"!  c #DDCDBB",
"~  c #E3C7A5",
"^  c #EBCAA2",
"/  c #E0C7A9",
"(  c #E6C9A8",
")  c #EECFAC",
"_  c #F2CDA0",
"`  c #F4D0A4",
"'  c #F3D2AB",
"]  c #E4CCB0",
"[  c #EBD3B6",
"{  c #EAD6BF",
"}  c #F1D4B2",
"|  c #DBD1C4",
" . c #E5D4C0",
".. c #E9D9C5",
"X. c #E7D9CA",
"o. c #ECDDCC",
"O. c #F1DCC5",
"+. c #F2E2CF",
"@. c #E2E1DF",
"#. c #ECE5DC",
"$. c #F1E7DB",
"%. c #DBDFE5",
"&. c #DAE3F1",
"*. c #EBE7E3",
"=. c #EEEAE5",
"-. c #E1E5EB",
";. c #E7E8E8",
":. c #EAEBED",
">. c #F1EAE2",
",. c #F3EFEA",
"<. c #F3F1EE",
"1. c #ECEFF5",
"2. c #E4EEFB",
"3. c #EEF6FF",
"4. c #EEFBFF",
"5. c #F3F3F4",
"6. c #F9F6F4",
"7. c #F4F7FB",
"8. c #F6FBFE",
"9. c #FAFCFD",
"0. c None",
/* pixels */
"0.0.0.0.0.0.0.0.0.0.0.0.0.0.0.0.0.0.0.0.0.0.0.0.0.0.0.0.0.0.0.0.",
"0.0.0.0.0.0.0.0.0.0.0.0.0.0.0.0.0.0.0.0.0.0.0.0.0.0.0.0.0.0.0.0.",
"0.0.0.0.0.0.0.0.0.0.0.  p 6 p e d u d q s f 0.0.0.0.0.0.0.0.0.0.",
"0.0.0.0.0.0.0.0.0.> , y 7 8 5 5 5 8 8 7 8 u z f 0.0.0.0.0.0.0.0.",
"0.0.0.0.0.0.0.. , t 8 5 5 3 5 5 8 8 8 5 5 5 8 s v 0.0.0.0.0.0.0.",
"0.0.0.0.0.0.0.5 8 5 3 3 4 5 5 8 7 8 e 5 5 4 3 7 s f 0.0.0.0.0.0.",
"0.0.0.0.0.@ t 5 7 5 5 5 5 5 8 8 k j 7 2 2 2 5 5 7 a k 0.0.0.0.0.",
"0.0.0.0.5 5 5 5 5 4 5 5 7 8 8 k ! K w F g 2 5 5 5 8 d ; 0.0.0.0.",
"0.0.0.@ 2 5 5 5 5 5 2 7 2 7 2 N @.^ x &./ 2 5 5 4 5 8 v 0.0.0.0.",
"0.0.0.8 5 5 5 5 5 5 5 5 M L T ^ ,.I C :.S % & 3 5 2 4 i v 0.0.0.",
"0.0.@ 5 5 5 5 5 7 8 e Z #.,.3.5.3.<.O.5.W q f 6 2 4 3 8 s 0.0.0.",
"0.0.2 5 5 5 7 7 8 e k [ 8.9.$.) [ o.7.9.5.;.| b 3 3 4 5 i : 0.0.",
"0.0.< 2 4 7 8 e e l B { 9.,.D N v R >.9.6.{ ( C 3 5 5 5 e z 0.0.",
"0.0.< 4 8 e w i s s e ^ 5.5.S r V A >.9.) r x e 5 5 5 5 8 s 0.0.",
"0.0.2 5 8 e i s s l P ' 6.9.>.W D Q 5.5.P e i r e 8 5 5 5 d 0.0.",
"0.0.2 4 7 8 e e i R ;.9.7.<.3.1.*.>.9.,.F r l s w e 7 5 7 d 0.0.",
"0.0.2 5 5 7 8 e v X.9.9.' E R ^ [ 6.9.#.C l v l s e 8 8 7 p 0.0.",
"0.0.2 5 3 5 7 e N o.9.<.D l B V I $.9...k x l l s i e 8 8 p 0.0.",
"0.0.< 2 5 5 5 8 i  .8.7.( 9 k V J :.7.E k s s s w e 8 8 8 r 0.0.",
"0.0.< 2 5 3 5 7 i G =.8.1.[ P N ` 8.<.F 7 u s e e 7 7 5 8 r 0.0.",
"0.0.X 2 2 5 5 2 8 s P [ >.5.1.#.<.9.6.U q w e 8 7 5 5 5 8 d 0.0.",
"0.0.0.< 3 5 5 5 5 8 u N J <.+.#.8.9.5.:.Y 9 8 7 5 5 5 5 e > 0.0.",
"0.0.0.> 2 3 5 5 5 7 8 8 A 2.G H :._ )  .~ 2 2 5 5 5 5 5 p 0.0.0.",
"0.0.0.0., 2 5 5 5 5 7 e P %.T D -.D & c a 2 3 4 5 5 8 7 - 0.0.0.",
"0.0.0.0.0.< 5 5 2 5 5 e c F B G | m & 3 5 5 5 3 5 5 8 7 0.0.0.0.",
"0.0.0.0.0.$ , 2 5 5 5 5 8 8 i i x 8 3 5 3 5 5 3 5 5 # 0.0.0.0.0.",
"0.0.0.0.0.0.# < 4 5 3 4 5 8 e 8 5 8 3 5 5 5 3 8 8 * 0.0.0.0.0.0.",
"0.0.0.0.0.0.0., < 2 5 5 5 8 8 5 3 3 5 3 3 8 8 < o 0.0.0.0.0.0.0.",
"0.0.0.0.0.0.0.0.o 5 2 4 3 8 8 3 8 2 8 5 t > < 0.0.0.0.0.0.0.0.0.",
"0.0.0.0.0.0.0.0.0.0.O < > 3 < 8 2 3 2 & 0.0.0.0.0.0.0.0.0.0.0.0.",
"0.0.0.0.0.0.0.0.0.0.0.0.0.0.0.0.0.0.0.0.0.0.0.0.0.0.0.0.0.0.0.0.",
"0.0.0.0.0.0.0.0.0.0.0.0.0.0.0.0.0.0.0.0.0.0.0.0.0.0.0.0.0.0.0.0."
};
